<svg xmlns="http://www.w3.org/2000/svg" viewBox="0 0 684 4848.8" width="684" height="4848.8" role="img">
  <title>Lamport mutex: four processes, two rounds</title>
  <desc>converted from diagrammes/mutex-egalites.mmd — Lamport mutex, two rounds</desc>
  <defs>
    <marker id="h009e73" viewBox="0 0 10 10" refX="9" refY="5" markerWidth="6" markerHeight="6" orient="auto-start-reverse"><path d="M 0 1 L 9 5 L 0 9 z" fill="#009e73"/></marker>
    <marker id="h14171c" viewBox="0 0 10 10" refX="9" refY="5" markerWidth="6" markerHeight="6" orient="auto-start-reverse"><path d="M 0 1 L 9 5 L 0 9 z" fill="#14171c"/></marker>
  </defs>
  <rect x="0" y="0" width="684" height="4848.8" fill="#ffffff"/>
  <text x="44" y="48" font-size="15" text-anchor="start" fill="#14171c" font-family="Inter, ui-sans-serif, system-ui, sans-serif">Lamport mutex: four processes, two rounds</text>
  <text x="36" y="85.5" font-size="11" text-anchor="end" fill="#878f9b" font-family="Inter, ui-sans-serif, system-ui, sans-serif" font-variant-numeric="tabular-nums">1000</text>
  <line x1="44" y1="82" x2="622" y2="82" stroke="#c3c9d3" stroke-width="1" stroke-dasharray="1 5" stroke-opacity="0.55"/>
  <text x="36" y="810.5" font-size="11" text-anchor="end" fill="#878f9b" font-family="Inter, ui-sans-serif, system-ui, sans-serif" font-variant-numeric="tabular-nums">1500</text>
  <line x1="44" y1="807" x2="622" y2="807" stroke="#c3c9d3" stroke-width="1" stroke-dasharray="1 5" stroke-opacity="0.55"/>
  <text x="36" y="1535.5" font-size="11" text-anchor="end" fill="#878f9b" font-family="Inter, ui-sans-serif, system-ui, sans-serif" font-variant-numeric="tabular-nums">2000</text>
  <line x1="44" y1="1532" x2="622" y2="1532" stroke="#c3c9d3" stroke-width="1" stroke-dasharray="1 5" stroke-opacity="0.55"/>
  <text x="36" y="2260.5" font-size="11" text-anchor="end" fill="#878f9b" font-family="Inter, ui-sans-serif, system-ui, sans-serif" font-variant-numeric="tabular-nums">2500</text>
  <line x1="44" y1="2257" x2="622" y2="2257" stroke="#c3c9d3" stroke-width="1" stroke-dasharray="1 5" stroke-opacity="0.55"/>
  <text x="36" y="2985.5" font-size="11" text-anchor="end" fill="#878f9b" font-family="Inter, ui-sans-serif, system-ui, sans-serif" font-variant-numeric="tabular-nums">3000</text>
  <line x1="44" y1="2982" x2="622" y2="2982" stroke="#c3c9d3" stroke-width="1" stroke-dasharray="1 5" stroke-opacity="0.55"/>
  <text x="36" y="3710.5" font-size="11" text-anchor="end" fill="#878f9b" font-family="Inter, ui-sans-serif, system-ui, sans-serif" font-variant-numeric="tabular-nums">3500</text>
  <line x1="44" y1="3707" x2="622" y2="3707" stroke="#c3c9d3" stroke-width="1" stroke-dasharray="1 5" stroke-opacity="0.55"/>
  <text x="36" y="4435.5" font-size="11" text-anchor="end" fill="#878f9b" font-family="Inter, ui-sans-serif, system-ui, sans-serif" font-variant-numeric="tabular-nums">4000</text>
  <line x1="44" y1="4432" x2="622" y2="4432" stroke="#c3c9d3" stroke-width="1" stroke-dasharray="1 5" stroke-opacity="0.55"/>
  <text x="78" y="60" font-size="13" text-anchor="middle" fill="#14171c" font-family="Inter, ui-sans-serif, system-ui, sans-serif" font-variant-numeric="tabular-nums">n0</text>
  <line x1="78" y1="70" x2="78" y2="4814.8" stroke="#c3c9d3" stroke-width="1.5"/>
  <text x="248" y="60" font-size="13" text-anchor="middle" fill="#14171c" font-family="Inter, ui-sans-serif, system-ui, sans-serif" font-variant-numeric="tabular-nums">n1</text>
  <line x1="248" y1="70" x2="248" y2="4814.8" stroke="#c3c9d3" stroke-width="1.5"/>
  <text x="418" y="60" font-size="13" text-anchor="middle" fill="#14171c" font-family="Inter, ui-sans-serif, system-ui, sans-serif" font-variant-numeric="tabular-nums">n2</text>
  <line x1="418" y1="70" x2="418" y2="4814.8" stroke="#c3c9d3" stroke-width="1.5"/>
  <text x="588" y="60" font-size="13" text-anchor="middle" fill="#14171c" font-family="Inter, ui-sans-serif, system-ui, sans-serif" font-variant-numeric="tabular-nums">n3</text>
  <line x1="588" y1="70" x2="588" y2="4814.8" stroke="#c3c9d3" stroke-width="1.5"/>
  <rect x="74.5" y="121.15" width="7" height="72.5" rx="3" fill="#d55e00" fill-opacity="0.3"/>
  <rect x="244.5" y="215.4" width="7" height="72.5" rx="3" fill="#d55e00" fill-opacity="0.3"/>
  <rect x="414.5" y="302.4" width="7" height="72.5" rx="3" fill="#d55e00" fill-opacity="0.3"/>
  <rect x="584.5" y="390.85" width="7" height="72.5" rx="3" fill="#d55e00" fill-opacity="0.3"/>
  <rect x="584.5" y="4459.55" width="7" height="72.5" rx="3" fill="#d55e00" fill-opacity="0.3"/>
  <rect x="74.5" y="4555.25" width="7" height="72.5" rx="3" fill="#d55e00" fill-opacity="0.3"/>
  <rect x="244.5" y="4649.5" width="7" height="72.5" rx="3" fill="#d55e00" fill-opacity="0.3"/>
  <rect x="414.5" y="4742.3" width="7" height="72.5" rx="3" fill="#d55e00" fill-opacity="0.3"/>
  <line x1="418" y1="82" x2="248" y2="96.5" stroke="#14171c" stroke-width="1.5" marker-end="url(#h14171c)"/>
  <line x1="78" y1="82" x2="248" y2="96.5" stroke="#14171c" stroke-width="1.5" marker-end="url(#h14171c)"/>
  <line x1="418" y1="82" x2="78" y2="97.95" stroke="#14171c" stroke-width="1.5" marker-end="url(#h14171c)"/>
  <line x1="78" y1="82" x2="588" y2="97.95" stroke="#14171c" stroke-width="1.5" marker-end="url(#h14171c)"/>
  <line x1="588" y1="82" x2="78" y2="99.4" stroke="#14171c" stroke-width="1.5" marker-end="url(#h14171c)"/>
  <line x1="248" y1="82" x2="78" y2="99.4" stroke="#14171c" stroke-width="1.5" marker-end="url(#h14171c)"/>
  <line x1="418" y1="82" x2="588" y2="99.4" stroke="#14171c" stroke-width="1.5" marker-end="url(#h14171c)"/>
  <line x1="588" y1="82" x2="418" y2="102.3" stroke="#14171c" stroke-width="1.5" marker-end="url(#h14171c)"/>
  <line x1="248" y1="82" x2="588" y2="102.3" stroke="#14171c" stroke-width="1.5" marker-end="url(#h14171c)"/>
  <line x1="248" y1="82" x2="418" y2="103.75" stroke="#14171c" stroke-width="1.5" marker-end="url(#h14171c)"/>
  <line x1="78" y1="82" x2="418" y2="103.75" stroke="#14171c" stroke-width="1.5" marker-end="url(#h14171c)"/>
  <line x1="588" y1="82" x2="248" y2="108.1" stroke="#14171c" stroke-width="1.5" marker-end="url(#h14171c)"/>
  <line x1="248" y1="96.5" x2="418" y2="111" stroke="#14171c" stroke-width="1.5" marker-end="url(#h14171c)"/>
  <line x1="248" y1="96.5" x2="78" y2="115.35" stroke="#14171c" stroke-width="1.5" marker-end="url(#h14171c)"/>
  <line x1="78" y1="97.95" x2="418" y2="116.8" stroke="#14171c" stroke-width="1.5" marker-end="url(#h14171c)"/>
  <line x1="588" y1="97.95" x2="78" y2="121.15" stroke="#14171c" stroke-width="1.5" marker-end="url(#h14171c)"/>
  <line x1="78" y1="99.4" x2="588" y2="113.9" stroke="#14171c" stroke-width="1.5" marker-end="url(#h14171c)"/>
  <line x1="588" y1="99.4" x2="418" y2="124.05" stroke="#14171c" stroke-width="1.5" marker-end="url(#h14171c)"/>
  <line x1="78" y1="99.4" x2="248" y2="126.95" stroke="#14171c" stroke-width="1.5" marker-end="url(#h14171c)"/>
  <line x1="418" y1="102.3" x2="588" y2="118.25" stroke="#14171c" stroke-width="1.5" marker-end="url(#h14171c)"/>
  <line x1="588" y1="102.3" x2="248" y2="121.15" stroke="#14171c" stroke-width="1.5" marker-end="url(#h14171c)"/>
  <line x1="418" y1="103.75" x2="248" y2="118.25" stroke="#14171c" stroke-width="1.5" marker-end="url(#h14171c)"/>
  <line x1="418" y1="103.75" x2="78" y2="121.15" stroke="#14171c" stroke-width="1.5" marker-end="url(#h14171c)"/>
  <line x1="248" y1="108.1" x2="588" y2="122.6" stroke="#14171c" stroke-width="1.5" marker-end="url(#h14171c)"/>
  <line x1="78" y1="193.65" x2="588" y2="208.15" stroke="#14171c" stroke-width="1.5" marker-end="url(#h14171c)"/>
  <line x1="78" y1="193.65" x2="418" y2="211.05" stroke="#14171c" stroke-width="1.5" marker-end="url(#h14171c)"/>
  <line x1="78" y1="193.65" x2="248" y2="215.4" stroke="#14171c" stroke-width="1.5" marker-end="url(#h14171c)"/>
  <line x1="248" y1="287.9" x2="418" y2="302.4" stroke="#14171c" stroke-width="1.5" marker-end="url(#h14171c)"/>
  <line x1="248" y1="287.9" x2="78" y2="306.75" stroke="#14171c" stroke-width="1.5" marker-end="url(#h14171c)"/>
  <line x1="248" y1="287.9" x2="588" y2="315.45" stroke="#14171c" stroke-width="1.5" marker-end="url(#h14171c)"/>
  <line x1="418" y1="374.9" x2="78" y2="389.4" stroke="#14171c" stroke-width="1.5" marker-end="url(#h14171c)"/>
  <line x1="418" y1="374.9" x2="588" y2="390.85" stroke="#14171c" stroke-width="1.5" marker-end="url(#h14171c)"/>
  <line x1="418" y1="374.9" x2="248" y2="392.3" stroke="#14171c" stroke-width="1.5" marker-end="url(#h14171c)"/>
  <line x1="588" y1="463.35" x2="248" y2="477.85" stroke="#14171c" stroke-width="1.5" marker-end="url(#h14171c)"/>
  <line x1="588" y1="463.35" x2="418" y2="477.85" stroke="#14171c" stroke-width="1.5" marker-end="url(#h14171c)"/>
  <line x1="588" y1="463.35" x2="78" y2="479.3" stroke="#14171c" stroke-width="1.5" marker-end="url(#h14171c)"/>
  <line x1="418" y1="4432" x2="78" y2="4446.5" stroke="#14171c" stroke-width="1.5" marker-end="url(#h14171c)"/>
  <line x1="588" y1="4432" x2="248" y2="4447.95" stroke="#14171c" stroke-width="1.5" marker-end="url(#h14171c)"/>
  <line x1="78" y1="4432" x2="418" y2="4447.95" stroke="#14171c" stroke-width="1.5" marker-end="url(#h14171c)"/>
  <line x1="78" y1="4432" x2="248" y2="4449.4" stroke="#14171c" stroke-width="1.5" marker-end="url(#h14171c)"/>
  <line x1="248" y1="4432" x2="418" y2="4450.85" stroke="#14171c" stroke-width="1.5" marker-end="url(#h14171c)"/>
  <line x1="418" y1="4432" x2="588" y2="4452.3" stroke="#14171c" stroke-width="1.5" marker-end="url(#h14171c)"/>
  <line x1="418" y1="4432" x2="248" y2="4452.3" stroke="#14171c" stroke-width="1.5" marker-end="url(#h14171c)"/>
  <line x1="78" y1="4432" x2="588" y2="4453.75" stroke="#14171c" stroke-width="1.5" marker-end="url(#h14171c)"/>
  <line x1="588" y1="4432" x2="418" y2="4456.65" stroke="#14171c" stroke-width="1.5" marker-end="url(#h14171c)"/>
  <line x1="248" y1="4432" x2="78" y2="4458.1" stroke="#14171c" stroke-width="1.5" marker-end="url(#h14171c)"/>
  <line x1="248" y1="4432" x2="588" y2="4459.55" stroke="#14171c" stroke-width="1.5" marker-end="url(#h14171c)"/>
  <line x1="588" y1="4432" x2="78" y2="4459.55" stroke="#14171c" stroke-width="1.5" marker-end="url(#h14171c)"/>
  <line x1="78" y1="4446.5" x2="418" y2="4469.7" stroke="#14171c" stroke-width="1.5" marker-end="url(#h14171c)"/>
  <line x1="248" y1="4447.95" x2="588" y2="4465.35" stroke="#14171c" stroke-width="1.5" marker-end="url(#h14171c)"/>
  <line x1="418" y1="4447.95" x2="78" y2="4468.25" stroke="#14171c" stroke-width="1.5" marker-end="url(#h14171c)"/>
  <line x1="248" y1="4449.4" x2="78" y2="4471.15" stroke="#14171c" stroke-width="1.5" marker-end="url(#h14171c)"/>
  <line x1="418" y1="4450.85" x2="248" y2="4466.8" stroke="#14171c" stroke-width="1.5" marker-end="url(#h14171c)"/>
  <line x1="248" y1="4452.3" x2="418" y2="4472.6" stroke="#14171c" stroke-width="1.5" marker-end="url(#h14171c)"/>
  <line x1="588" y1="4452.3" x2="418" y2="4474.05" stroke="#14171c" stroke-width="1.5" marker-end="url(#h14171c)"/>
  <line x1="588" y1="4453.75" x2="78" y2="4468.25" stroke="#14171c" stroke-width="1.5" marker-end="url(#h14171c)"/>
  <line x1="418" y1="4456.65" x2="588" y2="4475.5" stroke="#14171c" stroke-width="1.5" marker-end="url(#h14171c)"/>
  <line x1="78" y1="4458.1" x2="248" y2="4482.75" stroke="#14171c" stroke-width="1.5" marker-end="url(#h14171c)"/>
  <line x1="588" y1="4459.55" x2="248" y2="4474.05" stroke="#14171c" stroke-width="1.5" marker-end="url(#h14171c)"/>
  <line x1="78" y1="4459.55" x2="588" y2="4478.4" stroke="#14171c" stroke-width="1.5" marker-end="url(#h14171c)"/>
  <line x1="588" y1="4532.05" x2="78" y2="4555.25" stroke="#14171c" stroke-width="1.5" marker-end="url(#h14171c)"/>
  <line x1="588" y1="4532.05" x2="418" y2="4556.7" stroke="#14171c" stroke-width="1.5" marker-end="url(#h14171c)"/>
  <line x1="588" y1="4532.05" x2="248" y2="4558.15" stroke="#14171c" stroke-width="1.5" marker-end="url(#h14171c)"/>
  <line x1="78" y1="4627.75" x2="588" y2="4646.6" stroke="#14171c" stroke-width="1.5" marker-end="url(#h14171c)"/>
  <line x1="78" y1="4627.75" x2="248" y2="4649.5" stroke="#14171c" stroke-width="1.5" marker-end="url(#h14171c)"/>
  <line x1="78" y1="4627.75" x2="418" y2="4653.85" stroke="#14171c" stroke-width="1.5" marker-end="url(#h14171c)"/>
  <line x1="248" y1="4722" x2="588" y2="4740.85" stroke="#14171c" stroke-width="1.5" marker-end="url(#h14171c)"/>
  <line x1="248" y1="4722" x2="418" y2="4742.3" stroke="#14171c" stroke-width="1.5" marker-end="url(#h14171c)"/>
  <line x1="248" y1="4722" x2="78" y2="4742.3" stroke="#14171c" stroke-width="1.5" marker-end="url(#h14171c)"/>
  <line x1="418" y1="4814.8" x2="588" y2="4814.8" stroke="#878f9b" stroke-width="1.5"/>
  <line x1="418" y1="4814.8" x2="78" y2="4814.8" stroke="#878f9b" stroke-width="1.5"/>
  <line x1="418" y1="4814.8" x2="248" y2="4814.8" stroke="#878f9b" stroke-width="1.5"/>
  <line x1="44" y1="4814.8" x2="622" y2="4814.8" stroke="#878f9b" stroke-width="1" stroke-dasharray="4 3"/>
  <text x="618" y="4809.8" font-size="11" text-anchor="end" fill="#878f9b" font-family="Inter, ui-sans-serif, system-ui, sans-serif">quiescent</text>
  <line x1="96.4" y1="72.4" x2="80.4" y2="80.8" stroke="#009e73" stroke-width="1.6" marker-end="url(#h009e73)"/>
  <line x1="569.6" y1="72.4" x2="585.6" y2="80.8" stroke="#009e73" stroke-width="1.6" marker-end="url(#h009e73)"/>
  <line x1="229.6" y1="72.4" x2="245.6" y2="80.8" stroke="#009e73" stroke-width="1.6" marker-end="url(#h009e73)"/>
  <line x1="436.4" y1="72.4" x2="420.4" y2="80.8" stroke="#009e73" stroke-width="1.6" marker-end="url(#h009e73)"/>
  <line x1="229.6" y1="4422.4" x2="245.6" y2="4430.8" stroke="#009e73" stroke-width="1.6" marker-end="url(#h009e73)"/>
  <line x1="569.6" y1="4422.4" x2="585.6" y2="4430.8" stroke="#009e73" stroke-width="1.6" marker-end="url(#h009e73)"/>
  <line x1="399.6" y1="4422.4" x2="415.6" y2="4430.8" stroke="#009e73" stroke-width="1.6" marker-end="url(#h009e73)"/>
  <line x1="96.4" y1="4422.4" x2="80.4" y2="4430.8" stroke="#009e73" stroke-width="1.6" marker-end="url(#h009e73)"/>
  <text x="333.87" y="98.32" font-size="11" text-anchor="middle" fill="#14171c" font-family="Inter, ui-sans-serif, system-ui, sans-serif" transform="rotate(-4.88 333.87 98.32)">mx_request</text>
  <text x="123.46" y="76.74" font-size="11" text-anchor="middle" fill="#14171c" font-family="Inter, ui-sans-serif, system-ui, sans-serif" transform="rotate(4.88 123.46 76.74)">mx_request</text>
  <text x="193.76" y="83.4" font-size="11" text-anchor="middle" fill="#14171c" font-family="Inter, ui-sans-serif, system-ui, sans-serif" transform="rotate(-2.69 193.76 83.4)">mx_request</text>
  <text x="292.78" y="79.6" font-size="11" text-anchor="middle" fill="#14171c" font-family="Inter, ui-sans-serif, system-ui, sans-serif" transform="rotate(1.79 292.78 79.6)">mx_request</text>
  <text x="373.2" y="80.22" font-size="11" text-anchor="middle" fill="#14171c" font-family="Inter, ui-sans-serif, system-ui, sans-serif" transform="rotate(-1.95 373.2 80.22)">mx_request</text>
  <text x="99.33" y="106.37" font-size="11" text-anchor="middle" fill="#14171c" font-family="Inter, ui-sans-serif, system-ui, sans-serif" transform="rotate(-5.84 99.33 106.37)">mx_request</text>
  <text x="450.11" y="76.13" font-size="11" text-anchor="middle" fill="#14171c" font-family="Inter, ui-sans-serif, system-ui, sans-serif" transform="rotate(5.84 450.11 76.13)">mx_request</text>
  <text x="555.74" y="76.68" font-size="11" text-anchor="middle" fill="#14171c" font-family="Inter, ui-sans-serif, system-ui, sans-serif" transform="rotate(-6.81 555.74 76.68)">mx_request</text>
  <text x="498.47" y="106.08" font-size="11" text-anchor="middle" fill="#14171c" font-family="Inter, ui-sans-serif, system-ui, sans-serif" transform="rotate(3.42 498.47 106.08)">mx_request</text>
  <text x="280.34" y="76.96" font-size="11" text-anchor="middle" fill="#14171c" font-family="Inter, ui-sans-serif, system-ui, sans-serif" transform="rotate(7.29 280.34 76.96)">mx_request</text>
  <text x="193.6" y="98.52" font-size="11" text-anchor="middle" fill="#14171c" font-family="Inter, ui-sans-serif, system-ui, sans-serif" transform="rotate(3.66 193.6 98.52)">mx_request</text>
  <text x="471.51" y="81.81" font-size="11" text-anchor="middle" fill="#14171c" font-family="Inter, ui-sans-serif, system-ui, sans-serif" transform="rotate(-4.39 471.51 81.81)">mx_request</text>
  <text x="333.87" y="94.68" font-size="11" text-anchor="middle" fill="#14171c" font-family="Inter, ui-sans-serif, system-ui, sans-serif" transform="rotate(4.88 333.87 94.68)">mx_reply</text>
  <text x="110.48" y="120.91" font-size="11" text-anchor="middle" fill="#14171c" font-family="Inter, ui-sans-serif, system-ui, sans-serif" transform="rotate(-6.33 110.48 120.91)">mx_reply</text>
  <text x="274.7" y="117.98" font-size="11" text-anchor="middle" fill="#14171c" font-family="Inter, ui-sans-serif, system-ui, sans-serif" transform="rotate(3.17 274.7 117.98)">mx_reply</text>
  <text x="333.41" y="118.65" font-size="11" text-anchor="middle" fill="#14171c" font-family="Inter, ui-sans-serif, system-ui, sans-serif" transform="rotate(-2.6 333.41 118.65)">mx_reply</text>
  <text x="333.26" y="97.55" font-size="11" text-anchor="middle" fill="#14171c" font-family="Inter, ui-sans-serif, system-ui, sans-serif" transform="rotate(1.63 333.26 97.55)">mx_reply</text>
  <text x="504.21" y="120.75" font-size="11" text-anchor="middle" fill="#14171c" font-family="Inter, ui-sans-serif, system-ui, sans-serif" transform="rotate(-8.25 504.21 120.75)">mx_reply</text>
  <text x="175.34" y="124.4" font-size="11" text-anchor="middle" fill="#14171c" font-family="Inter, ui-sans-serif, system-ui, sans-serif" transform="rotate(9.21 175.34 124.4)">mx_reply</text>
  <text x="476.75" y="98.66" font-size="11" text-anchor="middle" fill="#14171c" font-family="Inter, ui-sans-serif, system-ui, sans-serif" transform="rotate(5.36 476.75 98.66)">mx_reply</text>
  <text x="391.3" y="122.33" font-size="11" text-anchor="middle" fill="#14171c" font-family="Inter, ui-sans-serif, system-ui, sans-serif" transform="rotate(-3.17 391.3 122.33)">mx_reply</text>
  <text x="333.77" y="120.08" font-size="11" text-anchor="middle" fill="#14171c" font-family="Inter, ui-sans-serif, system-ui, sans-serif" transform="rotate(-4.88 333.77 120.08)">mx_reply</text>
  <text x="274.73" y="101.96" font-size="11" text-anchor="middle" fill="#14171c" font-family="Inter, ui-sans-serif, system-ui, sans-serif" transform="rotate(-2.93 274.73 101.96)">mx_reply</text>
  <text x="444.81" y="125.61" font-size="11" text-anchor="middle" fill="#14171c" font-family="Inter, ui-sans-serif, system-ui, sans-serif" transform="rotate(2.44 444.81 125.61)">mx_reply</text>
  <text x="333.26" y="191.8" font-size="11" text-anchor="middle" fill="#14171c" font-family="Inter, ui-sans-serif, system-ui, sans-serif" transform="rotate(1.63 333.26 191.8)">mx_release</text>
  <text x="194.26" y="190.48" font-size="11" text-anchor="middle" fill="#14171c" font-family="Inter, ui-sans-serif, system-ui, sans-serif" transform="rotate(2.93 194.26 190.48)">mx_release</text>
  <text x="161.84" y="213.56" font-size="11" text-anchor="middle" fill="#14171c" font-family="Inter, ui-sans-serif, system-ui, sans-serif" transform="rotate(7.29 161.84 213.56)">mx_release</text>
  <text x="333.77" y="286.07" font-size="11" text-anchor="middle" fill="#14171c" font-family="Inter, ui-sans-serif, system-ui, sans-serif" transform="rotate(4.88 333.77 286.07)">mx_release</text>
  <text x="162" y="288.27" font-size="11" text-anchor="middle" fill="#14171c" font-family="Inter, ui-sans-serif, system-ui, sans-serif" transform="rotate(-6.33 162 288.27)">mx_release</text>
  <text x="472.94" y="296.99" font-size="11" text-anchor="middle" fill="#14171c" font-family="Inter, ui-sans-serif, system-ui, sans-serif" transform="rotate(4.63 472.94 296.99)">mx_release</text>
  <text x="193.41" y="375.36" font-size="11" text-anchor="middle" fill="#14171c" font-family="Inter, ui-sans-serif, system-ui, sans-serif" transform="rotate(-2.44 193.41 375.36)">mx_release</text>
  <text x="503.85" y="373.81" font-size="11" text-anchor="middle" fill="#14171c" font-family="Inter, ui-sans-serif, system-ui, sans-serif" transform="rotate(5.36 503.85 373.81)">mx_release</text>
  <text x="333.93" y="392.66" font-size="11" text-anchor="middle" fill="#14171c" font-family="Inter, ui-sans-serif, system-ui, sans-serif" transform="rotate(-5.84 333.93 392.66)">mx_release</text>
  <text x="363.41" y="463.81" font-size="11" text-anchor="middle" fill="#14171c" font-family="Inter, ui-sans-serif, system-ui, sans-serif" transform="rotate(-2.44 363.41 463.81)">mx_release</text>
  <text x="503.77" y="479.68" font-size="11" text-anchor="middle" fill="#14171c" font-family="Inter, ui-sans-serif, system-ui, sans-serif" transform="rotate(-4.88 503.77 479.68)">mx_release</text>
  <text x="333.28" y="480.43" font-size="11" text-anchor="middle" fill="#14171c" font-family="Inter, ui-sans-serif, system-ui, sans-serif" transform="rotate(-1.79 333.28 480.43)">mx_release</text>
  <text x="194.77" y="4450.64" font-size="11" text-anchor="middle" fill="#14171c" font-family="Inter, ui-sans-serif, system-ui, sans-serif" transform="rotate(-2.44 194.77 4450.64)">mx_request</text>
  <text x="471.58" y="4428.34" font-size="11" text-anchor="middle" fill="#14171c" font-family="Inter, ui-sans-serif, system-ui, sans-serif" transform="rotate(-2.69 471.58 4428.34)">mx_request</text>
  <text x="194.22" y="4428.33" font-size="11" text-anchor="middle" fill="#14171c" font-family="Inter, ui-sans-serif, system-ui, sans-serif" transform="rotate(2.69 194.22 4428.33)">mx_request</text>
  <text x="123.71" y="4427.52" font-size="11" text-anchor="middle" fill="#14171c" font-family="Inter, ui-sans-serif, system-ui, sans-serif" transform="rotate(5.84 123.71 4427.52)">mx_request</text>
  <text x="293.5" y="4427.88" font-size="11" text-anchor="middle" fill="#14171c" font-family="Inter, ui-sans-serif, system-ui, sans-serif" transform="rotate(6.33 293.5 4427.88)">mx_request</text>
  <text x="501.92" y="4451.19" font-size="11" text-anchor="middle" fill="#14171c" font-family="Inter, ui-sans-serif, system-ui, sans-serif" transform="rotate(6.81 501.92 4451.19)">mx_request</text>
  <text x="347.68" y="4449.57" font-size="11" text-anchor="middle" fill="#14171c" font-family="Inter, ui-sans-serif, system-ui, sans-serif" transform="rotate(-6.81 347.68 4449.57)">mx_request</text>
  <text x="292.59" y="4432.04" font-size="11" text-anchor="middle" fill="#14171c" font-family="Inter, ui-sans-serif, system-ui, sans-serif" transform="rotate(2.44 292.59 4432.04)">mx_request</text>
  <text x="555.51" y="4427.51" font-size="11" text-anchor="middle" fill="#14171c" font-family="Inter, ui-sans-serif, system-ui, sans-serif" transform="rotate(-8.25 555.51 4427.51)">mx_request</text>
  <text x="121.4" y="4442.22" font-size="11" text-anchor="middle" fill="#14171c" font-family="Inter, ui-sans-serif, system-ui, sans-serif" transform="rotate(-8.73 121.4 4442.22)">mx_request</text>
  <text x="364.53" y="4432.3" font-size="11" text-anchor="middle" fill="#14171c" font-family="Inter, ui-sans-serif, system-ui, sans-serif" transform="rotate(4.63 364.53 4432.3)">mx_request</text>
  <text x="373.02" y="4434.49" font-size="11" text-anchor="middle" fill="#14171c" font-family="Inter, ui-sans-serif, system-ui, sans-serif" transform="rotate(-3.09 373.02 4434.49)">mx_request</text>
  <text x="274.58" y="4469.04" font-size="11" text-anchor="middle" fill="#14171c" font-family="Inter, ui-sans-serif, system-ui, sans-serif" transform="rotate(3.9 274.58 4469.04)">mx_reply</text>
  <text x="444.73" y="4467.14" font-size="11" text-anchor="middle" fill="#14171c" font-family="Inter, ui-sans-serif, system-ui, sans-serif" transform="rotate(2.93 444.73 4467.14)">mx_reply</text>
  <text x="221.34" y="4468.82" font-size="11" text-anchor="middle" fill="#14171c" font-family="Inter, ui-sans-serif, system-ui, sans-serif" transform="rotate(-3.42 221.34 4468.82)">mx_reply</text>
  <text x="137.05" y="4472.78" font-size="11" text-anchor="middle" fill="#14171c" font-family="Inter, ui-sans-serif, system-ui, sans-serif" transform="rotate(-7.29 137.05 4472.78)">mx_reply</text>
  <text x="333.85" y="4467.89" font-size="11" text-anchor="middle" fill="#14171c" font-family="Inter, ui-sans-serif, system-ui, sans-serif" transform="rotate(-5.36 333.85 4467.89)">mx_reply</text>
  <text x="347.68" y="4455.03" font-size="11" text-anchor="middle" fill="#14171c" font-family="Inter, ui-sans-serif, system-ui, sans-serif" transform="rotate(6.81 347.68 4455.03)">mx_reply</text>
  <text x="504.16" y="4472.21" font-size="11" text-anchor="middle" fill="#14171c" font-family="Inter, ui-sans-serif, system-ui, sans-serif" transform="rotate(-7.29 504.16 4472.21)">mx_reply</text>
  <text x="291.94" y="4453.06" font-size="11" text-anchor="middle" fill="#14171c" font-family="Inter, ui-sans-serif, system-ui, sans-serif" transform="rotate(-1.63 291.94 4453.06)">mx_reply</text>
  <text x="504" y="4457.02" font-size="11" text-anchor="middle" fill="#14171c" font-family="Inter, ui-sans-serif, system-ui, sans-serif" transform="rotate(6.33 504 4457.02)">mx_reply</text>
  <text x="161.69" y="4479.44" font-size="11" text-anchor="middle" fill="#14171c" font-family="Inter, ui-sans-serif, system-ui, sans-serif" transform="rotate(8.25 161.69 4479.44)">mx_reply</text>
  <text x="391.19" y="4477.06" font-size="11" text-anchor="middle" fill="#14171c" font-family="Inter, ui-sans-serif, system-ui, sans-serif" transform="rotate(-2.44 391.19 4477.06)">mx_reply</text>
  <text x="332.66" y="4478.08" font-size="11" text-anchor="middle" fill="#14171c" font-family="Inter, ui-sans-serif, system-ui, sans-serif" transform="rotate(2.12 332.66 4478.08)">mx_reply</text>
  <text x="332.59" y="4534.55" font-size="11" text-anchor="middle" fill="#14171c" font-family="Inter, ui-sans-serif, system-ui, sans-serif" transform="rotate(-2.6 332.59 4534.55)">mx_release</text>
  <text x="504.31" y="4553.39" font-size="11" text-anchor="middle" fill="#14171c" font-family="Inter, ui-sans-serif, system-ui, sans-serif" transform="rotate(-8.25 504.31 4553.39)">mx_release</text>
  <text x="498.32" y="4529.8" font-size="11" text-anchor="middle" fill="#14171c" font-family="Inter, ui-sans-serif, system-ui, sans-serif" transform="rotate(-4.39 498.32 4529.8)">mx_release</text>
  <text x="333.34" y="4628.07" font-size="11" text-anchor="middle" fill="#14171c" font-family="Inter, ui-sans-serif, system-ui, sans-serif" transform="rotate(2.12 333.34 4628.07)">mx_release</text>
  <text x="161.84" y="4647.66" font-size="11" text-anchor="middle" fill="#14171c" font-family="Inter, ui-sans-serif, system-ui, sans-serif" transform="rotate(7.29 161.84 4647.66)">mx_release</text>
  <text x="141.06" y="4623.46" font-size="11" text-anchor="middle" fill="#14171c" font-family="Inter, ui-sans-serif, system-ui, sans-serif" transform="rotate(4.39 141.06 4623.46)">mx_release</text>
  <text x="472.71" y="4725.34" font-size="11" text-anchor="middle" fill="#14171c" font-family="Inter, ui-sans-serif, system-ui, sans-serif" transform="rotate(3.17 472.71 4725.34)">mx_release</text>
  <text x="331.92" y="4741.19" font-size="11" text-anchor="middle" fill="#14171c" font-family="Inter, ui-sans-serif, system-ui, sans-serif" transform="rotate(6.81 331.92 4741.19)">mx_release</text>
  <text x="161.92" y="4723.11" font-size="11" text-anchor="middle" fill="#14171c" font-family="Inter, ui-sans-serif, system-ui, sans-serif" transform="rotate(-6.81 161.92 4723.11)">mx_release</text>
  <text x="503" y="4805.69" font-size="11" text-anchor="middle" fill="#878f9b" font-family="Inter, ui-sans-serif, system-ui, sans-serif">mx_release</text>
  <text x="193.79" y="4805.69" font-size="11" text-anchor="middle" fill="#878f9b" font-family="Inter, ui-sans-serif, system-ui, sans-serif">mx_release</text>
  <text x="333" y="4805.69" font-size="11" text-anchor="middle" fill="#878f9b" font-family="Inter, ui-sans-serif, system-ui, sans-serif">mx_release</text>
  <text x="100" y="91" font-size="11" text-anchor="start" fill="#009e73" font-family="Inter, ui-sans-serif, system-ui, sans-serif">request_cs</text>
  <text x="566" y="91" font-size="11" text-anchor="end" fill="#009e73" font-family="Inter, ui-sans-serif, system-ui, sans-serif">request_cs</text>
  <text x="226" y="71" font-size="11" text-anchor="end" fill="#009e73" font-family="Inter, ui-sans-serif, system-ui, sans-serif">request_cs</text>
  <text x="440" y="91" font-size="11" text-anchor="start" fill="#009e73" font-family="Inter, ui-sans-serif, system-ui, sans-serif">request_cs</text>
  <text x="226" y="4421" font-size="11" text-anchor="end" fill="#009e73" font-family="Inter, ui-sans-serif, system-ui, sans-serif">request_cs</text>
  <text x="566" y="4441" font-size="11" text-anchor="end" fill="#009e73" font-family="Inter, ui-sans-serif, system-ui, sans-serif">request_cs</text>
  <text x="396" y="4421" font-size="11" text-anchor="end" fill="#009e73" font-family="Inter, ui-sans-serif, system-ui, sans-serif">request_cs</text>
  <text x="100" y="4421" font-size="11" text-anchor="start" fill="#009e73" font-family="Inter, ui-sans-serif, system-ui, sans-serif">request_cs</text>
</svg>
