<svg xmlns="http://www.w3.org/2000/svg" viewBox="0 0 684 662.65" width="684" height="662.65" role="img">
  <title>A relay that never happened</title>
  <desc>drawn: the reliable-broadcast run where n0 crashes mid-broadcast</desc>
  <defs>
    <marker id="h0072b2" viewBox="0 0 10 10" refX="9" refY="5" markerWidth="6" markerHeight="6" orient="auto-start-reverse"><path d="M 0 1 L 9 5 L 0 9 z" fill="#0072b2"/></marker>
    <marker id="h009e73" viewBox="0 0 10 10" refX="9" refY="5" markerWidth="6" markerHeight="6" orient="auto-start-reverse"><path d="M 0 1 L 9 5 L 0 9 z" fill="#009e73"/></marker>
  </defs>
  <rect x="0" y="0" width="684" height="662.65" fill="#ffffff"/>
  <text x="44" y="48" font-size="15" text-anchor="start" fill="#14171c" font-family="Inter, ui-sans-serif, system-ui, sans-serif">A relay that never happened</text>
  <text x="36" y="85.5" font-size="11" text-anchor="end" fill="#878f9b" font-family="Inter, ui-sans-serif, system-ui, sans-serif" font-variant-numeric="tabular-nums">0</text>
  <line x1="44" y1="82" x2="622" y2="82" stroke="#c3c9d3" stroke-width="1" stroke-dasharray="1 5" stroke-opacity="0.55"/>
  <text x="36" y="230.5" font-size="11" text-anchor="end" fill="#878f9b" font-family="Inter, ui-sans-serif, system-ui, sans-serif" font-variant-numeric="tabular-nums">100</text>
  <line x1="44" y1="227" x2="622" y2="227" stroke="#c3c9d3" stroke-width="1" stroke-dasharray="1 5" stroke-opacity="0.55"/>
  <text x="36" y="375.5" font-size="11" text-anchor="end" fill="#878f9b" font-family="Inter, ui-sans-serif, system-ui, sans-serif" font-variant-numeric="tabular-nums">200</text>
  <line x1="44" y1="372" x2="622" y2="372" stroke="#c3c9d3" stroke-width="1" stroke-dasharray="1 5" stroke-opacity="0.55"/>
  <text x="36" y="520.5" font-size="11" text-anchor="end" fill="#878f9b" font-family="Inter, ui-sans-serif, system-ui, sans-serif" font-variant-numeric="tabular-nums">300</text>
  <line x1="44" y1="517" x2="622" y2="517" stroke="#c3c9d3" stroke-width="1" stroke-dasharray="1 5" stroke-opacity="0.55"/>
  <text x="78" y="60" font-size="13" text-anchor="middle" fill="#14171c" font-family="Inter, ui-sans-serif, system-ui, sans-serif" font-variant-numeric="tabular-nums">n0</text>
  <line x1="78" y1="70" x2="78" y2="227" stroke="#c3c9d3" stroke-width="1.5"/>
  <line x1="78" y1="227" x2="78" y2="628.65" stroke="#dbdfe6" stroke-width="1.5" stroke-dasharray="2 6"/>
  <text x="248" y="60" font-size="13" text-anchor="middle" fill="#14171c" font-family="Inter, ui-sans-serif, system-ui, sans-serif" font-variant-numeric="tabular-nums">n1</text>
  <line x1="248" y1="70" x2="248" y2="628.65" stroke="#c3c9d3" stroke-width="1.5"/>
  <text x="418" y="60" font-size="13" text-anchor="middle" fill="#14171c" font-family="Inter, ui-sans-serif, system-ui, sans-serif" font-variant-numeric="tabular-nums">n2</text>
  <line x1="418" y1="70" x2="418" y2="628.65" stroke="#c3c9d3" stroke-width="1.5"/>
  <text x="588" y="60" font-size="13" text-anchor="middle" fill="#14171c" font-family="Inter, ui-sans-serif, system-ui, sans-serif" font-variant-numeric="tabular-nums">n3</text>
  <line x1="588" y1="70" x2="588" y2="628.65" stroke="#c3c9d3" stroke-width="1.5"/>
  <line x1="78" y1="82" x2="248" y2="96.5" stroke="#0072b2" stroke-width="1.5" marker-end="url(#h0072b2)"/>
  <line x1="248" y1="96.5" x2="78" y2="125.5" stroke="#0072b2" stroke-width="1.5" marker-end="url(#h0072b2)"/>
  <line x1="248" y1="140" x2="418" y2="169" stroke="#0072b2" stroke-width="1.5" marker-end="url(#h0072b2)"/>
  <line x1="418" y1="169" x2="78" y2="198" stroke="#0072b2" stroke-width="1.5" marker-end="url(#h0072b2)"/>
  <line x1="248" y1="182.05" x2="588" y2="211.05" stroke="#0072b2" stroke-width="1.5" marker-end="url(#h0072b2)"/>
  <line x1="588" y1="231.35" x2="248" y2="260.35" stroke="#0072b2" stroke-width="1.5" marker-end="url(#h0072b2)"/>
  <line x1="78" y1="312.55" x2="152.8" y2="318.93" stroke="#cc79a7" stroke-width="1.5" stroke-dasharray="3 3"/>
  <line x1="147.8" y1="313.93" x2="157.8" y2="323.93" stroke="#cc79a7" stroke-width="1.8"/>
  <line x1="157.8" y1="313.93" x2="147.8" y2="323.93" stroke="#cc79a7" stroke-width="1.8"/>
  <line x1="418" y1="334.3" x2="248" y2="363.3" stroke="#0072b2" stroke-width="1.5" marker-end="url(#h0072b2)"/>
  <line x1="588" y1="512.65" x2="418" y2="541.65" stroke="#0072b2" stroke-width="1.5" marker-end="url(#h0072b2)"/>
  <line x1="78" y1="560.5" x2="190.2" y2="566.88" stroke="#cc79a7" stroke-width="1.5" stroke-dasharray="3 3"/>
  <line x1="185.2" y1="561.88" x2="195.2" y2="571.88" stroke="#cc79a7" stroke-width="1.8"/>
  <line x1="195.2" y1="561.88" x2="185.2" y2="571.88" stroke="#cc79a7" stroke-width="1.8"/>
  <line x1="418" y1="599.65" x2="588" y2="628.65" stroke="#0072b2" stroke-width="1.5" marker-end="url(#h0072b2)"/>
  <line x1="44" y1="628.65" x2="622" y2="628.65" stroke="#878f9b" stroke-width="1" stroke-dasharray="4 3"/>
  <text x="618" y="623.65" font-size="11" text-anchor="end" fill="#878f9b" font-family="Inter, ui-sans-serif, system-ui, sans-serif">quiescent</text>
  <line x1="96.4" y1="72.4" x2="80.4" y2="80.8" stroke="#009e73" stroke-width="1.6" marker-end="url(#h009e73)"/>
  <circle cx="78" cy="82" r="4" fill="#0072b2"/>
  <circle cx="248" cy="96.5" r="4" fill="#0072b2"/>
  <circle cx="418" cy="169" r="4" fill="#0072b2"/>
  <circle cx="588" cy="211.05" r="4" fill="#0072b2"/>
  <line x1="74" y1="223" x2="82" y2="231" stroke="#cc79a7" stroke-width="1.8"/>
  <line x1="82" y1="223" x2="74" y2="231" stroke="#cc79a7" stroke-width="1.8"/>
  <text x="189.33" y="100.64" font-size="11" text-anchor="middle" fill="#0072b2" font-family="Inter, ui-sans-serif, system-ui, sans-serif" transform="rotate(4.88 189.33 100.64)">rb</text>
  <text x="161.47" y="102.02" font-size="11" text-anchor="middle" fill="#0072b2" font-family="Inter, ui-sans-serif, system-ui, sans-serif" transform="rotate(-9.68 161.47 102.02)">rb</text>
  <text x="334.53" y="145.52" font-size="11" text-anchor="middle" fill="#0072b2" font-family="Inter, ui-sans-serif, system-ui, sans-serif" transform="rotate(9.68 334.53 145.52)">rb</text>
  <text x="220.03" y="176.74" font-size="11" text-anchor="middle" fill="#0072b2" font-family="Inter, ui-sans-serif, system-ui, sans-serif" transform="rotate(-4.88 220.03 176.74)">rb</text>
  <text x="445.97" y="189.79" font-size="11" text-anchor="middle" fill="#0072b2" font-family="Inter, ui-sans-serif, system-ui, sans-serif" transform="rotate(4.88 445.97 189.79)">rb</text>
  <text x="390.03" y="239.09" font-size="11" text-anchor="middle" fill="#0072b2" font-family="Inter, ui-sans-serif, system-ui, sans-serif" transform="rotate(-4.88 390.03 239.09)">rb</text>
  <text x="116.17" y="306.66" font-size="11" text-anchor="middle" fill="#cc79a7" font-family="Inter, ui-sans-serif, system-ui, sans-serif" transform="rotate(4.88 116.17 306.66)">rb</text>
  <text x="331.47" y="339.82" font-size="11" text-anchor="middle" fill="#0072b2" font-family="Inter, ui-sans-serif, system-ui, sans-serif" transform="rotate(-9.68 331.47 339.82)">rb</text>
  <text x="504.53" y="536.13" font-size="11" text-anchor="middle" fill="#0072b2" font-family="Inter, ui-sans-serif, system-ui, sans-serif" transform="rotate(-9.68 504.53 536.13)">rb</text>
  <text x="134.62" y="554.6" font-size="11" text-anchor="middle" fill="#cc79a7" font-family="Inter, ui-sans-serif, system-ui, sans-serif" transform="rotate(3.25 134.62 554.6)">rb</text>
  <text x="504.53" y="605.17" font-size="11" text-anchor="middle" fill="#0072b2" font-family="Inter, ui-sans-serif, system-ui, sans-serif" transform="rotate(9.68 504.53 605.17)">rb</text>
  <text x="100" y="76.04" font-size="11" text-anchor="start" fill="#009e73" font-family="Inter, ui-sans-serif, system-ui, sans-serif">do_broadcast</text>
  <text x="84" y="91" font-size="11" text-anchor="start" fill="#0072b2" font-family="Inter, ui-sans-serif, system-ui, sans-serif">deliver</text>
  <text x="254" y="100.5" font-size="11" text-anchor="start" fill="#0072b2" font-family="Inter, ui-sans-serif, system-ui, sans-serif">deliver</text>
  <text x="424" y="173" font-size="11" text-anchor="start" fill="#0072b2" font-family="Inter, ui-sans-serif, system-ui, sans-serif">deliver</text>
  <text x="582" y="215.05" font-size="11" text-anchor="end" fill="#0072b2" font-family="Inter, ui-sans-serif, system-ui, sans-serif">deliver</text>
  <text x="84" y="236" font-size="11" text-anchor="start" fill="#cc79a7" font-family="Inter, ui-sans-serif, system-ui, sans-serif">crash</text>
</svg>
