<svg xmlns="http://www.w3.org/2000/svg" viewBox="0 0 684 362.5" width="684" height="362.5" role="img">
  <title>Everything the language can say</title>
  <defs>
    <marker id="h0072b2" viewBox="0 0 10 10" refX="9" refY="5" markerWidth="6" markerHeight="6" orient="auto-start-reverse"><path d="M 0 1 L 9 5 L 0 9 z" fill="#0072b2"/></marker>
    <marker id="h009e73" viewBox="0 0 10 10" refX="9" refY="5" markerWidth="6" markerHeight="6" orient="auto-start-reverse"><path d="M 0 1 L 9 5 L 0 9 z" fill="#009e73"/></marker>
    <marker id="h14171c" viewBox="0 0 10 10" refX="9" refY="5" markerWidth="6" markerHeight="6" orient="auto-start-reverse"><path d="M 0 1 L 9 5 L 0 9 z" fill="#14171c"/></marker>
  </defs>
  <rect x="0" y="0" width="684" height="362.5" fill="#ffffff"/>
  <text x="44" y="48" font-size="15" text-anchor="start" fill="#14171c" font-family="Inter, ui-sans-serif, system-ui, sans-serif">Everything the language can say</text>
  <text x="36" y="85.5" font-size="11" text-anchor="end" fill="#878f9b" font-family="Inter, ui-sans-serif, system-ui, sans-serif" font-variant-numeric="tabular-nums">0</text>
  <line x1="44" y1="82" x2="622" y2="82" stroke="#c3c9d3" stroke-width="1" stroke-dasharray="1 5" stroke-opacity="0.55"/>
  <text x="36" y="158" font-size="11" text-anchor="end" fill="#878f9b" font-family="Inter, ui-sans-serif, system-ui, sans-serif" font-variant-numeric="tabular-nums">50</text>
  <line x1="44" y1="154.5" x2="622" y2="154.5" stroke="#c3c9d3" stroke-width="1" stroke-dasharray="1 5" stroke-opacity="0.55"/>
  <text x="36" y="230.5" font-size="11" text-anchor="end" fill="#878f9b" font-family="Inter, ui-sans-serif, system-ui, sans-serif" font-variant-numeric="tabular-nums">100</text>
  <line x1="44" y1="227" x2="622" y2="227" stroke="#c3c9d3" stroke-width="1" stroke-dasharray="1 5" stroke-opacity="0.55"/>
  <text x="36" y="303" font-size="11" text-anchor="end" fill="#878f9b" font-family="Inter, ui-sans-serif, system-ui, sans-serif" font-variant-numeric="tabular-nums">150</text>
  <line x1="44" y1="299.5" x2="622" y2="299.5" stroke="#c3c9d3" stroke-width="1" stroke-dasharray="1 5" stroke-opacity="0.55"/>
  <text x="78" y="60" font-size="13" text-anchor="middle" fill="#14171c" font-family="Inter, ui-sans-serif, system-ui, sans-serif" font-variant-numeric="tabular-nums">n0</text>
  <line x1="78" y1="70" x2="78" y2="328.5" stroke="#c3c9d3" stroke-width="1.5"/>
  <text x="248" y="60" font-size="13" text-anchor="middle" fill="#14171c" font-family="Inter, ui-sans-serif, system-ui, sans-serif" font-variant-numeric="tabular-nums">n1</text>
  <line x1="248" y1="70" x2="248" y2="241.5" stroke="#c3c9d3" stroke-width="1.5"/>
  <line x1="248" y1="241.5" x2="248" y2="314" stroke="#dbdfe6" stroke-width="1.5" stroke-dasharray="2 6"/>
  <line x1="248" y1="314" x2="248" y2="328.5" stroke="#c3c9d3" stroke-width="1.5"/>
  <text x="418" y="60" font-size="13" text-anchor="middle" fill="#14171c" font-family="Inter, ui-sans-serif, system-ui, sans-serif" font-variant-numeric="tabular-nums">n2</text>
  <line x1="418" y1="70" x2="418" y2="285" stroke="#c3c9d3" stroke-width="1.5"/>
  <line x1="418" y1="285" x2="418" y2="328.5" stroke="#dbdfe6" stroke-width="1.5" stroke-dasharray="2 6"/>
  <text x="588" y="60" font-size="13" text-anchor="middle" fill="#14171c" font-family="Inter, ui-sans-serif, system-ui, sans-serif" font-variant-numeric="tabular-nums">n3</text>
  <line x1="588" y1="70" x2="588" y2="328.5" stroke="#c3c9d3" stroke-width="1.5"/>
  <rect x="244.5" y="125.5" width="7" height="58" rx="3" fill="#d55e00" fill-opacity="0.3"/>
  <rect x="205.5" y="154.5" width="85" height="87" rx="2" fill="#c3c9d3" fill-opacity="0.25"/>
  <rect x="545.5" y="154.5" width="85" height="87" rx="2" fill="#c3c9d3" fill-opacity="0.25"/>
  <rect x="414.5" y="169" width="7" height="29" rx="3" fill="#d55e00" fill-opacity="0.3"/>
  <path d="M 244.5 227 L 251.5 227 L 251.5 237.5 L 250.63 241.5 L 248.88 237.5 L 247.13 241.5 L 245.38 237.5 L 244.5 237.5 Z" fill="#d55e00" fill-opacity="0.3"/>
  <line x1="78" y1="82" x2="248" y2="96.5" stroke="#0072b2" stroke-width="1.5" marker-end="url(#h0072b2)"/>
  <line x1="78" y1="82" x2="418" y2="132.75" stroke="#0072b2" stroke-width="1.5" marker-end="url(#h0072b2)"/>
  <line x1="248" y1="111" x2="307.84" y2="117.34" stroke="#d55e00" stroke-width="1.5" stroke-dasharray="1 3"/>
  <line x1="302.84" y1="112.34" x2="312.84" y2="122.34" stroke="#d55e00" stroke-width="1.8"/>
  <line x1="312.84" y1="112.34" x2="302.84" y2="122.34" stroke="#d55e00" stroke-width="1.8"/>
  <line x1="78" y1="212.5" x2="248" y2="256" stroke="#cc79a7" stroke-width="1.5"/>
  <line x1="243" y1="251" x2="253" y2="261" stroke="#cc79a7" stroke-width="1.8"/>
  <line x1="253" y1="251" x2="243" y2="261" stroke="#cc79a7" stroke-width="1.8"/>
  <path d="M 78 263.25 C 125.6 263.25 125.6 292.25 78 292.25" fill="none" stroke="#14171c" stroke-width="1.5" marker-end="url(#h14171c)"/>
  <line x1="248" y1="270.5" x2="285.4" y2="273.69" stroke="#cc79a7" stroke-width="1.5" stroke-dasharray="3 3"/>
  <line x1="280.4" y1="268.69" x2="290.4" y2="278.69" stroke="#cc79a7" stroke-width="1.8"/>
  <line x1="290.4" y1="268.69" x2="280.4" y2="278.69" stroke="#cc79a7" stroke-width="1.8"/>
  <line x1="78" y1="299.5" x2="588" y2="328.5" stroke="#878f9b" stroke-width="1.5"/>
  <line x1="44" y1="328.5" x2="622" y2="328.5" stroke="#878f9b" stroke-width="1" stroke-dasharray="4 3"/>
  <text x="618" y="323.5" font-size="11" text-anchor="end" fill="#878f9b" font-family="Inter, ui-sans-serif, system-ui, sans-serif">time-limit</text>
  <line x1="96.4" y1="72.4" x2="80.4" y2="80.8" stroke="#009e73" stroke-width="1.6" marker-end="url(#h009e73)"/>
  <circle cx="78" cy="82" r="4" fill="#0072b2"/>
  <circle cx="248" cy="96.5" r="4" fill="#0072b2"/>
  <circle cx="418" cy="132.75" r="4" fill="#0072b2"/>
  <line x1="244" y1="237.5" x2="252" y2="245.5" stroke="#cc79a7" stroke-width="1.8"/>
  <line x1="252" y1="237.5" x2="244" y2="245.5" stroke="#cc79a7" stroke-width="1.8"/>
  <line x1="414" y1="281" x2="422" y2="289" stroke="#d55e00" stroke-width="1.8"/>
  <line x1="422" y1="281" x2="414" y2="289" stroke="#d55e00" stroke-width="1.8"/>
  <circle cx="248" cy="314" r="4" fill="none" stroke="#009e73" stroke-width="1.4"/>
  <text x="135.12" y="96.01" font-size="11" text-anchor="middle" fill="#0072b2" font-family="Inter, ui-sans-serif, system-ui, sans-serif" transform="rotate(4.88 135.12 96.01)">rb</text>
  <text x="273.86" y="120.44" font-size="11" text-anchor="middle" fill="#0072b2" font-family="Inter, ui-sans-serif, system-ui, sans-serif" transform="rotate(8.49 273.86 120.44)">rb</text>
  <text x="278.91" y="105.11" font-size="11" text-anchor="middle" fill="#d55e00" font-family="Inter, ui-sans-serif, system-ui, sans-serif" transform="rotate(6.04 278.91 105.11)">rb</text>
  <text x="160.74" y="243.07" font-size="11" text-anchor="middle" fill="#cc79a7" font-family="Inter, ui-sans-serif, system-ui, sans-serif" transform="rotate(14.35 160.74 243.07)">request, 2</text>
  <text x="68.89" y="277.75" font-size="11" text-anchor="middle" fill="#14171c" font-family="Inter, ui-sans-serif, system-ui, sans-serif">retry</text>
  <text x="267.47" y="263.02" font-size="11" text-anchor="middle" fill="#cc79a7" font-family="Inter, ui-sans-serif, system-ui, sans-serif" transform="rotate(4.88 267.47 263.02)">rb</text>
  <text x="374.32" y="307.23" font-size="11" text-anchor="middle" fill="#878f9b" font-family="Inter, ui-sans-serif, system-ui, sans-serif" transform="rotate(3.25 374.32 307.23)">rb</text>
  <text x="100" y="76.04" font-size="11" text-anchor="start" fill="#009e73" font-family="Inter, ui-sans-serif, system-ui, sans-serif">do_broadcast</text>
  <text x="84" y="91" font-size="11" text-anchor="start" fill="#0072b2" font-family="Inter, ui-sans-serif, system-ui, sans-serif">deliver</text>
  <text x="242" y="100.5" font-size="11" text-anchor="end" fill="#0072b2" font-family="Inter, ui-sans-serif, system-ui, sans-serif">deliver</text>
  <text x="424" y="136.75" font-size="11" text-anchor="start" fill="#0072b2" font-family="Inter, ui-sans-serif, system-ui, sans-serif">deliver</text>
  <text x="254" y="245.5" font-size="11" text-anchor="start" fill="#cc79a7" font-family="Inter, ui-sans-serif, system-ui, sans-serif">crash</text>
  <text x="424" y="289" font-size="11" text-anchor="start" fill="#d55e00" font-family="Inter, ui-sans-serif, system-ui, sans-serif">exited on its own</text>
  <text x="254" y="318" font-size="11" text-anchor="start" fill="#009e73" font-family="Inter, ui-sans-serif, system-ui, sans-serif">recover</text>
</svg>
